<mxfile host="app.diagrams.net" agent="Mozilla/5.0 (Macintosh; Intel Mac OS X 10_15_7) AppleWebKit/537.36 (KHTML, like Gecko) Chrome/131.0.0.0 Safari/537.36" version="24.9.0">
  <diagram name="第 1 页" id="ljqJnMd4tAoq8gkYt9_l">
    <mxGraphModel dx="1194" dy="731" grid="1" gridSize="10" guides="1" tooltips="1" connect="1" arrows="1" fold="1" page="1" pageScale="1" pageWidth="827" pageHeight="1169" math="0" shadow="0">
      <root>
        <mxCell id="0" />
        <mxCell id="1" parent="0" />
        <mxCell id="-XVkC3dEDmF10gojKpt2-1" value="打车订单" style="shape=datastore;whiteSpace=wrap;html=1;" vertex="1" parent="1">
          <mxGeometry x="70" y="190" width="60" height="60" as="geometry" />
        </mxCell>
        <mxCell id="-XVkC3dEDmF10gojKpt2-2" value="顺风车订单" style="shape=datastore;whiteSpace=wrap;html=1;" vertex="1" parent="1">
          <mxGeometry x="70" y="280" width="60" height="60" as="geometry" />
        </mxCell>
        <mxCell id="-XVkC3dEDmF10gojKpt2-3" value="..." style="shape=datastore;whiteSpace=wrap;html=1;" vertex="1" parent="1">
          <mxGeometry x="70" y="370" width="60" height="60" as="geometry" />
        </mxCell>
        <mxCell id="-XVkC3dEDmF10gojKpt2-4" value="" style="rounded=1;whiteSpace=wrap;html=1;fillColor=none;dashed=1;" vertex="1" parent="1">
          <mxGeometry x="40" y="120" width="120" height="340" as="geometry" />
        </mxCell>
        <mxCell id="-XVkC3dEDmF10gojKpt2-5" value="业务数据：TDSQL" style="text;html=1;align=center;verticalAlign=middle;whiteSpace=wrap;rounded=0;" vertex="1" parent="1">
          <mxGeometry x="40" y="130" width="120" height="30" as="geometry" />
        </mxCell>
        <mxCell id="-XVkC3dEDmF10gojKpt2-8" value="" style="group" vertex="1" connectable="0" parent="1">
          <mxGeometry x="290" y="150" width="60" height="70" as="geometry" />
        </mxCell>
        <mxCell id="-XVkC3dEDmF10gojKpt2-6" value="" style="points=[];aspect=fixed;html=1;align=center;shadow=0;dashed=0;fillColor=#FF6A00;strokeColor=none;shape=mxgraph.alibaba_cloud.apsara_file_storage_for_hdfs;" vertex="1" parent="-XVkC3dEDmF10gojKpt2-8">
          <mxGeometry x="12" width="48" height="47.400000000000006" as="geometry" />
        </mxCell>
        <mxCell id="-XVkC3dEDmF10gojKpt2-7" value="HDFS" style="text;html=1;align=center;verticalAlign=middle;resizable=0;points=[];autosize=1;strokeColor=none;fillColor=none;" vertex="1" parent="-XVkC3dEDmF10gojKpt2-8">
          <mxGeometry y="40" width="60" height="30" as="geometry" />
        </mxCell>
        <mxCell id="-XVkC3dEDmF10gojKpt2-10" style="edgeStyle=orthogonalEdgeStyle;rounded=0;orthogonalLoop=1;jettySize=auto;html=1;exitX=0.5;exitY=0;exitDx=0;exitDy=0;" edge="1" parent="1" source="-XVkC3dEDmF10gojKpt2-9" target="-XVkC3dEDmF10gojKpt2-7">
          <mxGeometry relative="1" as="geometry" />
        </mxCell>
        <mxCell id="-XVkC3dEDmF10gojKpt2-9" value="Venus: ETL" style="rounded=0;whiteSpace=wrap;html=1;" vertex="1" parent="1">
          <mxGeometry x="260" y="260" width="120" height="60" as="geometry" />
        </mxCell>
        <mxCell id="-XVkC3dEDmF10gojKpt2-12" value="" style="sketch=0;aspect=fixed;pointerEvents=1;shadow=0;dashed=0;html=1;strokeColor=#6c8ebf;labelPosition=center;verticalLabelPosition=bottom;verticalAlign=top;align=center;fillColor=#dae8fc;shape=mxgraph.mscae.enterprise.shared_folder" vertex="1" parent="1">
          <mxGeometry x="430" y="10" width="43" height="50" as="geometry" />
        </mxCell>
        <mxCell id="-XVkC3dEDmF10gojKpt2-13" value="CFS/CephFS" style="text;html=1;align=center;verticalAlign=middle;resizable=0;points=[];autosize=1;strokeColor=none;fillColor=none;" vertex="1" parent="1">
          <mxGeometry x="406.5" y="58" width="90" height="30" as="geometry" />
        </mxCell>
        <mxCell id="-XVkC3dEDmF10gojKpt2-14" style="edgeStyle=orthogonalEdgeStyle;rounded=0;orthogonalLoop=1;jettySize=auto;html=1;exitX=0;exitY=0.5;exitDx=0;exitDy=0;exitPerimeter=0;entryX=0.396;entryY=-0.021;entryDx=0;entryDy=0;entryPerimeter=0;" edge="1" parent="1" source="-XVkC3dEDmF10gojKpt2-12" target="-XVkC3dEDmF10gojKpt2-6">
          <mxGeometry relative="1" as="geometry" />
        </mxCell>
      </root>
    </mxGraphModel>
  </diagram>
</mxfile>
